<?xml version="1.0" standalone="no"?>
<!DOCTYPE svg PUBLIC "-//W3C//DTD SVG 20010904//EN"
 "http://www.w3.org/TR/2001/REC-SVG-20010904/DTD/svg10.dtd">
<svg version="1.0" xmlns="http://www.w3.org/2000/svg"
 width="1024.000000pt" height="1024.000000pt" viewBox="0 0 1024.000000 1024.000000"
 preserveAspectRatio="xMidYMid meet">
<metadata>
Created by potrace 1.14, written by Peter Selinger 2001-2017
</metadata>
<g transform="translate(0.000000,1024.000000) scale(0.100000,-0.100000)"
fill="#000000" stroke="none">
<path d="M0 5120 l0 -5120 5120 0 5120 0 0 5120 0 5120 -5120 0 -5120 0 0
-5120z m5570 3111 c393 -61 774 -203 1089 -408 l84 -54 51 48 c28 26 114 109
191 184 77 75 161 150 187 168 164 110 388 120 569 25 87 -46 269 -230 316
-319 105 -201 74 -457 -75 -618 -26 -27 -128 -115 -227 -195 -99 -79 -179
-147 -178 -151 1 -4 27 -46 57 -95 356 -567 514 -1277 430 -1936 -77 -604
-344 -1181 -764 -1649 l-90 -100 447 -407 c247 -224 450 -411 451 -416 2 -4
-246 -8 -551 -8 l-556 0 -187 178 c-102 97 -191 179 -196 180 -5 2 -79 -32
-166 -76 -415 -211 -785 -305 -1262 -319 -725 -22 -1370 185 -1896 607 -49 39
-91 69 -94 68 -3 -2 -222 -155 -487 -340 -383 -269 -488 -338 -513 -338 -43 0
-80 39 -80 83 0 31 36 74 390 458 214 233 390 427 390 431 0 4 -23 33 -51 65
-290 330 -540 821 -649 1273 -105 440 -106 946 -1 1375 116 472 345 909 679
1296 471 547 1182 926 1867 998 55 6 116 13 135 15 19 2 152 3 295 1 200 -3
291 -8 395 -24z"/>
<path d="M4880 7229 c-510 -62 -908 -318 -1207 -775 -159 -244 -267 -522 -318
-824 -22 -128 -31 -476 -16 -610 27 -237 89 -473 178 -679 42 -97 124 -256
142 -274 7 -7 691 724 691 739 0 3 -14 23 -30 44 -81 102 -115 238 -91 362 27
137 4 112 903 987 456 443 828 809 828 814 0 13 -219 114 -319 147 -164 53
-286 72 -496 75 -104 2 -224 -1 -265 -6z"/>
<path d="M6183 5798 l-500 -402 43 -63 c138 -202 110 -486 -64 -655 -31 -30
-374 -277 -762 -548 -388 -272 -722 -506 -743 -521 l-39 -28 62 -40 c169 -109
352 -184 559 -228 117 -25 143 -27 371 -27 228 0 254 2 371 27 319 68 577 207
810 437 211 208 355 447 468 774 88 255 125 468 125 731 0 195 -12 307 -51
484 -22 100 -96 336 -136 430 l-14 32 -500 -403z"/>
</g>
</svg>
