<svg viewBox="0 0 1024 1024" fill="none" xmlns="http://www.w3.org/2000/svg">
<rect width="1024" height="1024" fill="#020D29"/>
<path d="M509.848 798C465.085 798 424.339 789.667 387.61 773C351.455 755.778 320.178 733 293.779 704.667C267.954 676.333 247.868 644.389 233.521 608.833C219.174 572.722 212 535.778 212 498C212 458.556 219.461 421.056 234.382 385.5C249.877 349.389 270.824 317.444 297.222 289.667C324.195 261.333 355.759 239.111 391.914 223C428.643 206.333 468.815 198 512.43 198C556.62 198 596.792 206.611 632.947 223.833C669.676 241.056 700.953 264.111 726.778 293C752.603 321.889 772.689 354.111 787.036 389.667C801.383 425.222 808.557 461.889 808.557 499.667C808.557 538.556 801.096 576.056 786.175 612.167C771.254 647.722 750.307 679.667 723.334 708C696.935 735.778 665.372 757.722 628.643 773.833C592.488 789.944 552.89 798 509.848 798ZM510.709 696.333C539.403 696.333 564.941 690.778 587.323 679.667C609.704 668 628.356 652.722 643.277 633.833C658.198 614.389 669.389 593 676.849 569.667C684.884 545.778 688.901 521.889 688.901 498C688.901 472.444 684.597 447.722 675.989 423.833C667.954 399.944 656.189 378.833 640.694 360.5C625.773 342.167 607.122 327.444 584.74 316.333C562.933 305.222 538.255 299.667 510.709 299.667C481.44 299.667 455.615 305.5 433.234 317.167C411.426 328.278 393.062 343.556 378.141 363C363.22 381.889 351.742 403 343.707 426.333C336.247 449.667 332.516 473.556 332.516 498C332.516 523.556 336.534 548.278 344.568 572.167C352.603 596.056 364.08 617.167 379.001 635.5C394.496 653.833 413.148 668.556 434.956 679.667C457.337 690.778 482.588 696.333 510.709 696.333ZM597.222 696.333L650.089 646.652L812 793.833H700.092L597.222 696.333Z" fill="url(#paint0_linear_107_45)"/>
<g filter="url(#filter0_d_107_45)">
<path d="M709.321 213.609C731.062 192.461 765.919 192.852 787.176 214.481L796.31 223.775C818.999 246.861 816.794 284.365 791.553 304.662L492.912 544.815C477.367 557.315 455.257 557.66 439.326 545.65C418.152 529.687 416.194 498.731 435.19 480.254L709.321 213.609Z" fill="#FEED3D"/>
<path d="M490.114 484.346C510.854 461.814 546.513 461.704 567.393 484.108C589.016 507.309 585.124 544.153 559.125 562.376L225.119 796.488C221.687 798.894 216.992 798.381 214.167 795.292C211.271 792.125 211.278 787.283 214.185 784.125L490.114 484.346Z" fill="#FEED3D"/>
</g>
<defs>
<filter id="filter0_d_107_45" x="172" y="158" width="680" height="680" filterUnits="userSpaceOnUse" color-interpolation-filters="sRGB">
<feFlood flood-opacity="0" result="BackgroundImageFix"/>
<feColorMatrix in="SourceAlpha" type="matrix" values="0 0 0 0 0 0 0 0 0 0 0 0 0 0 0 0 0 0 127 0" result="hardAlpha"/>
<feOffset/>
<feGaussianBlur stdDeviation="20"/>
<feComposite in2="hardAlpha" operator="out"/>
<feColorMatrix type="matrix" values="0 0 0 0 0 0 0 0 0 0 0 0 0 0 0 0 0 0 0.88 0"/>
<feBlend mode="normal" in2="BackgroundImageFix" result="effect1_dropShadow_107_45"/>
<feBlend mode="normal" in="SourceGraphic" in2="effect1_dropShadow_107_45" result="shape"/>
</filter>
<linearGradient id="paint0_linear_107_45" x1="512" y1="198" x2="512" y2="798" gradientUnits="userSpaceOnUse">
<stop stop-color="#FDFFFF"/>
<stop offset="1" stop-color="#00C5FF"/>
</linearGradient>
</defs>
</svg>
